<svg id="Capa_1" data-name="Capa 1" xmlns="http://www.w3.org/2000/svg" viewBox="0 0 796.29 1013"><defs><style>.cls-1{fill:#6c3099;}</style></defs><path class="cls-1" d="M706.25,791.94c-.16-.14-.3-.29-.46-.45-9.08-8.65-22.4-21-38.64-7.78,0,0-25.45,17.82-25.5,17.87-54.1,45.08-126.92,60.57-206.32,13.94-64.9-38.11-99.64-119-78-204.48,28.86-98.36,118.27-163.22,229.53-122,4.14,1.53,12.36.78,17.78-5.44,2.18-2.5,7.54-6.36,9.27-7.77,6.36-5.2,9.39-9.11,15.46-14.76,9.58-8.93,3-20.53-9-25.56-74.05-30.91-183.07-23.67-260.56,55.33-80.52,82.08-92.45,212.21-27.19,307.34,33,48,77.42,81,133.32,96.62,74.93,20.86,143.6,7.58,206.07-35.26,3.24-2.22,10.23-8.94,18.62-8.94,14.57,0,24.2,20.79,12.58,29.55-24.13,18.19-58.78,37.64-87.85,46.57-12.18,3.74-35.55,0-47.91,2.32-14.15,2.67-32.9,16.41-47.44,16.34-71.43-.32-144.83-29-201.58-92.15C213.11,736.09,223.56,550.89,342.28,445a273.36,273.36,0,0,1,69.32-45.31c14.18-6.42,43.57,2.22,57.85-2.41,23.95-7.77,31.9-19.36,46.37-21.76,70.32-11.64,133.62,14.29,182.34,56,7.23,6.19,5.39,16-1.55,22.54l-6.71,6.64c-28.19,26.62-41.7,32.67-69,60.19-10.32,10.38-13,19.34-26.28,12.43-79.58-35-159.15,3.68-191.66,62.92-29.62,54-12,132,34.73,171,31.79,26.59,77.43,34.92,120,25.18,29.55-5.34,58.51-20,82.72-43.6a12.67,12.67,0,0,0-.28-18.35l-13.1-12a24.49,24.49,0,0,0-31.71-1.25A103.63,103.63,0,0,1,585,724.54a133.35,133.35,0,0,1-28.84,13.07,79.59,79.59,0,0,1-96-41.82c-17.41-37-5.31-79.55,29-102.27,31.7-20.95,77.58-16.64,114.65,11.75,7.73,5.91,12.25,6,19.32-.63,31.12-29,62.76-57.44,94.16-86.14q36.9-33.71,73.66-67.49a16.45,16.45,0,0,0,1.44-22.81c-61.24-70.93-140.13-114-240.83-115.62C527.19,312.2,503.42,326,479,337.29,425.74,153.71,561.54,21.4,474.17,21.52c-19.76,9.6-25.23,35-32.27,50.39-16.26,48.16-26.3,95.07-30,136.92-1.49-3.31-3-6.62-4.54-9.9a389.1,389.1,0,0,0-32.26-56.08c-25-35.69-56.39-64.68-92.73-88.21C239.53,26.91,193.05,9,142.28,2.86,102.94-1.88,63.69-.22,24.44,4.11c-4.86.54-9.73,1-14.63,1.56A11.08,11.08,0,0,0,.53,20.05c6.39,20.13,12.5,40.32,20,60.07,8.19,21.72,17.33,43,29.65,62.74a213.91,213.91,0,0,0,76.47,73.39c39.1,22.43,81.53,33.71,126,38.32,30.57,3.18,61.28,4.9,91.73,9.47a337.82,337.82,0,0,1,68.48,18c2.51,20.51,6.32,44.68,12.46,68.59-22.89.42-49.61-1.34-64.32,6.51-108,57.59-173.07,164.34-177.82,289.42-5.82,153.15,86.39,291.7,229.4,344.65,35.67,13.21,67.57,20.87,104.67,21.78,20.06.5,42.07-20.39,61.83-23.3,23.62-3.48,61,5.81,83.45-2.31,51.31-18.59,87.42-45.37,124.94-86.3a24.84,24.84,0,0,0-1.28-35Z" transform="translate(0 0)"/></svg>